<?xml version="1.0" encoding="UTF-8" standalone="no"?>
<svg
   xmlns:dc="http://purl.org/dc/elements/1.1/"
   xmlns:cc="http://creativecommons.org/ns#"
   xmlns:rdf="http://www.w3.org/1999/02/22-rdf-syntax-ns#"
   xmlns:svg="http://www.w3.org/2000/svg"
   xmlns="http://www.w3.org/2000/svg"
   xmlns:sodipodi="http://sodipodi.sourceforge.net/DTD/sodipodi-0.dtd"
   xmlns:inkscape="http://www.inkscape.org/namespaces/inkscape"
   width="32pt"
   height="32pt"
   viewBox="0 0 32 32"
   version="1.1"
   id="svg3106"
   inkscape:version="0.48.4 r9939"
   sodipodi:docname="icon.svg">
  <metadata
     id="metadata3116">
    <rdf:RDF>
      <cc:Work
         rdf:about="">
        <dc:format>image/svg+xml</dc:format>
        <dc:type
           rdf:resource="http://purl.org/dc/dcmitype/StillImage" />
        <dc:title></dc:title>
      </cc:Work>
    </rdf:RDF>
  </metadata>
  <defs
     id="defs3114" />
  <sodipodi:namedview
     pagecolor="#ffffff"
     bordercolor="#666666"
     borderopacity="1"
     objecttolerance="10"
     gridtolerance="10"
     guidetolerance="10"
     inkscape:pageopacity="0"
     inkscape:pageshadow="2"
     inkscape:window-width="1920"
     inkscape:window-height="1021"
     id="namedview3112"
     showgrid="false"
     inkscape:zoom="16.68772"
     inkscape:cx="8.6501899"
     inkscape:cy="21.474319"
     inkscape:window-x="-2"
     inkscape:window-y="36"
     inkscape:window-maximized="1"
     inkscape:current-layer="svg3106" />
  <path
     d="M 0,0 32,0 C 44.960792,36.451477 0,48.940129 0,10.8 c 1.27,3.79 1.17,8.26 3.66,11.52 2.55,3.19 6.72,0.72 10.03,1.02 -0.51,0.36 -1.53,1.07 -2.04,1.43 0.77,1.51 1.6,2.98 2.44,4.45 5.86,-0.28 11.51,-1.89 17.15,-3.37 -0.35,-1.38 -0.71,-2.75 -1.07,-4.13 -4.26,0.85 -8.47,1.9 -12.72,2.76 -0.85,-0.72 -1.71,-1.43 -2.56,-2.15 3.24,-0.61 6.99,-0.61 9.52,-3.03 1.54,-1.38 1.33,-3.61 1.63,-5.46 -5.21,-0.36 -8.47,5 -13.82,4.39 0.69,-0.41 2.09,-1.23 2.78,-1.64 0,-0.58 0,-1.75 0,-2.33 4.37,-0.96 8.87,-1.55 13.07,-3.17 C 27.76,9.68 27.34,8.3 26.94,6.92 21.29,8.73 15.05,8.88 9.89,12.06 c 0.07,1.79 0.13,3.58 0.19,5.38 0.75,0.38 2.23,1.15 2.98,1.53 -1.2,0.02 -3.6,0.06 -4.8,0.07 C 7.29,16.31 6.18,13.54 6,10.62 7.14,8.96 9.22,8.68 11,8.18 15.23,7.2 19.48,6.33 23.74,5.5 23.14,4.26 22.53,3.03 21.92,1.8 15.97,2.1 10.11,3.45 4.45,5.22 1.99,5.77 0.79,8.03 0,10.21 z"
     id="path3108"
     inkscape:connector-curvature="0"
     style="fill:none"
     sodipodi:nodetypes="ccccccccccccccccccccccccccccc" />
  <path
     d="m 4.9293944,5.0282422 c 5.6599996,-1.77 11.5199996,-3.12 17.4699996,-3.42 0.61,1.23 1.22,2.46 1.82,3.7 -4.26,0.83 -8.51,1.7 -12.74,2.68 -1.7799996,0.5 -3.8599996,0.78 -4.9999996,2.4399998 0.18,2.92 1.29,5.69 2.26,8.42 1.2,-0.01 3.5999996,-0.05 4.7999996,-0.07 -0.75,-0.38 -2.23,-1.15 -2.98,-1.53 -0.06,-1.8 -0.12,-3.59 -0.19,-5.38 5.16,-3.1799998 11.4,-3.3299998 17.05,-5.1399998 0.4,1.38 0.82,2.76 1.13,4.1699998 -4.2,1.62 -8.7,2.21 -13.07,3.17 0,0.58 0,1.75 0,2.33 -0.69,0.41 -2.09,1.23 -2.78,1.64 5.35,0.61 8.61,-4.75 13.82,-4.39 -0.3,1.85 -0.09,4.08 -1.63,5.46 -2.53,2.42 -6.28,2.42 -9.52,3.03 0.85,0.72 1.71,1.43 2.56,2.15 4.25,-0.86 8.46,-1.91 12.72,-2.76 0.36,1.38 0.72,2.75 1.07,4.13 -5.64,1.48 -11.29,3.09 -17.15,3.37 -0.84,-1.47 -1.67,-2.94 -2.44,-4.45 0.51,-0.36 1.53,-1.07 2.04,-1.43 -3.31,-0.3 -7.4799996,2.17 -10.0299996,-1.02 -2.49,-3.26 -2.39,-7.73 -3.65999997,-11.52 l 0,-0.59 C 1.2693944,7.8382422 2.4693944,5.5782422 4.9293944,5.0282422 z"
     id="path3110"
     inkscape:connector-curvature="0"
     style="fill:#0071bc" />
</svg>
